<?xml version="1.0" encoding="utf-8"?>
<!-- Generator: Adobe Illustrator 24.0.1, SVG Export Plug-In . SVG Version: 6.00 Build 0)  -->
<svg version="1.1" id="Capa_1" xmlns="http://www.w3.org/2000/svg" xmlns:xlink="http://www.w3.org/1999/xlink" x="0px" y="0px"
	 viewBox="0 0 430.9 62.4" style="enable-background:new 0 0 430.9 62.4;" xml:space="preserve">
<style type="text/css">
	.st0{fill:#001B38;}
	.st1{fill:#F1862C;}
</style>
<g>
	<polygon class="st0" points="422.7,54.8 307.7,54.8 315.8,7.6 430.9,7.6 	"/>
	<g>
		<g>
			<path class="st0" d="M33.2,18.3H21.3l-5.8,33.3H5.9l5.8-33.3H0l1.3-7.6h33.2L33.2,18.3z"/>
			<path class="st0" d="M58.6,34.2h-15L41.8,44h17.8l-1.3,7.6H30.9L38,10.7h27.4l-1.3,7.6H46.3l-1.5,8.6h15.1L58.6,34.2z"/>
			<path class="st0" d="M79.1,37.1h-5.3l-2.5,14.5h-9.6l7.1-40.9l14.4,0c4.6,0,8.2,1.1,10.7,3.2c2.5,2.2,3.6,5.1,3.4,8.9
				c-0.2,3-1.1,5.4-2.6,7.3c-1.5,1.9-3.6,3.5-6.3,4.6l5.5,16.4v0.5H83.6L79.1,37.1z M75,29.5l5.6,0.1c1.5,0,2.9-0.4,4-1.1
				c1.1-0.8,1.9-1.8,2.4-3.1c0.5-1.3,0.6-2.6,0.4-3.8c-0.4-2.1-1.7-3.2-4-3.3l-6.5,0L75,29.5z"/>
			<path class="st0" d="M115,37.1h-5.3l-2.5,14.5h-9.6l7.1-40.9l14.4,0c4.6,0,8.2,1.1,10.7,3.2c2.5,2.2,3.6,5.1,3.4,8.9
				c-0.2,3-1.1,5.4-2.6,7.3c-1.5,1.9-3.6,3.5-6.3,4.6l5.5,16.4v0.5h-10.3L115,37.1z M110.9,29.5l5.6,0.1c1.5,0,2.9-0.4,4-1.1
				c1.1-0.8,1.9-1.8,2.4-3.1c0.5-1.3,0.6-2.6,0.4-3.8c-0.4-2.1-1.7-3.2-4-3.3l-6.5,0L110.9,29.5z"/>
			<path class="st0" d="M143.6,51.6H134l7.1-40.9h9.6L143.6,51.6z"/>
			<path class="st0" d="M185.8,18.3h-11.9l-5.8,33.3h-9.6l5.8-33.3h-11.7l1.3-7.6h33.2L185.8,18.3z"/>
			<path class="st0" d="M199.6,52.1c-4.3-0.1-7.7-1.5-10.2-4.2c-2.6-2.7-4-6.3-4.4-10.9c-0.2-2.2,0-4.9,0.5-7.9
				c0.5-3,1.5-5.8,2.9-8.4c1.4-2.6,3.1-4.7,5.2-6.4c3.5-2.9,7.5-4.3,12-4.2c2.8,0.1,5.2,0.7,7.3,1.9c2.1,1.2,3.8,3,5,5.3
				c1.3,2.3,2,4.9,2.2,7.9c0.1,2.1,0,4.4-0.4,7.1c-0.4,2.7-1.1,5.2-2.2,7.6c-1.1,2.4-2.5,4.5-4.2,6.4c-1.7,1.8-3.7,3.3-6,4.4
				S202.5,52.2,199.6,52.1z M210.6,25.1c-0.2-4.7-2-7.1-5.4-7.3c-2.7-0.1-4.9,0.9-6.6,3.2c-1.7,2.2-2.9,5.5-3.5,9.9
				c-0.4,2.7-0.5,4.8-0.4,6.3c0.2,4.8,2,7.2,5.5,7.3c2.3,0.1,4.3-0.7,5.9-2.5c1.6-1.8,2.8-4.3,3.6-7.6
				C210.4,31,210.7,27.9,210.6,25.1z"/>
			<path class="st0" d="M238.2,37.1h-5.3l-2.5,14.5h-9.6l7.1-40.9l14.4,0c4.6,0,8.2,1.1,10.7,3.2c2.5,2.2,3.6,5.1,3.4,8.9
				c-0.2,3-1.1,5.4-2.6,7.3c-1.5,1.9-3.6,3.5-6.3,4.6l5.5,16.4v0.5h-10.3L238.2,37.1z M234.2,29.5l5.6,0.1c1.5,0,2.9-0.4,4-1.1
				c1.1-0.8,1.9-1.8,2.4-3.1c0.5-1.3,0.6-2.6,0.4-3.8c-0.4-2.1-1.7-3.2-4-3.3l-6.5,0L234.2,29.5z"/>
			<path class="st0" d="M266.9,51.6h-9.6l7.1-40.9h9.6L266.9,51.6z"/>
			<path class="st0" d="M289.8,52.1c-4.3-0.1-7.7-1.5-10.2-4.2c-2.6-2.7-4-6.3-4.4-10.9c-0.2-2.2,0-4.9,0.5-7.9
				c0.5-3,1.5-5.8,2.9-8.4c1.4-2.6,3.1-4.7,5.2-6.4c3.5-2.9,7.5-4.3,12-4.2c2.8,0.1,5.2,0.7,7.3,1.9c2.1,1.2,3.8,3,5,5.3
				c1.3,2.3,2,4.9,2.2,7.9c0.1,2.1,0,4.4-0.4,7.1c-0.4,2.7-1.1,5.2-2.2,7.6c-1.1,2.4-2.5,4.5-4.2,6.4c-1.7,1.8-3.7,3.3-6,4.4
				C295.3,51.7,292.7,52.2,289.8,52.1z M300.8,25.1c-0.2-4.7-2-7.1-5.4-7.3c-2.7-0.1-4.9,0.9-6.6,3.2c-1.7,2.2-2.9,5.5-3.5,9.9
				c-0.4,2.7-0.5,4.8-0.4,6.3c0.2,4.8,2,7.2,5.5,7.3c2.3,0.1,4.3-0.7,5.9-2.5c1.6-1.8,2.8-4.3,3.6-7.6
				C300.6,31,300.9,27.9,300.8,25.1z"/>
			<path class="st1" d="M345.8,39.7l9.9-29h8.4l-15.2,40.9h-8.3l-2.2-27.2l-10.7,27.2h-8.3L317,10.7h8l0.8,28.9l11-28.9h7
				L345.8,39.7z"/>
			<path class="st1" d="M388.1,33.8h-15.7l-1.9,11h18.4l-1.2,6.8h-26.7l7.1-40.9h26.6l-1.2,6.8h-18.3l-1.7,9.7h15.7L388.1,33.8z"/>
			<path class="st1" d="M391.9,51.6l7.1-40.9l12.8,0c4.7,0,8.3,1,10.7,2.9c2.4,1.9,3.5,4.6,3.2,8.1c-0.3,4.1-2.7,7.2-7.2,9.1
				c1.6,0.6,2.9,1.6,3.8,3.2c0.9,1.5,1.3,3.4,1.2,5.5c-0.3,3.9-1.8,6.9-4.5,9c-2.8,2.1-6.5,3.2-11.3,3.2H391.9z M403.3,33.7l-1.9,11
				l6.5,0c2,0,3.7-0.5,5.1-1.5c1.4-1,2.2-2.4,2.4-4.1c0.3-1.7,0-3-0.7-3.9c-0.7-0.9-1.9-1.5-3.6-1.5L403.3,33.7z M404.3,27.8
				l5.6,0.1c2.1,0,3.8-0.5,5.1-1.5c1.3-0.9,2.1-2.2,2.4-3.9c0.5-3.3-1.3-5-5.2-5l-6.1,0L404.3,27.8z"/>
		</g>
	</g>
</g>
</svg>
