<?xml version="1.0" encoding="utf-8"?>
<!-- Generator: Adobe Illustrator 24.0.1, SVG Export Plug-In . SVG Version: 6.00 Build 0)  -->
<svg version="1.1" id="Capa_1" xmlns="http://www.w3.org/2000/svg" xmlns:xlink="http://www.w3.org/1999/xlink" x="0px" y="0px"
	 viewBox="0 0 430.9 62.4" style="enable-background:new 0 0 430.9 62.4;" xml:space="preserve">
<style type="text/css">
	.st0{fill:#151F36;}
	.st1{fill:#F1862C;}
</style>
<g>
	<polygon class="st0" points="414.3,62.4 294.8,62.4 311.3,0 430.9,0 	"/>
	<g>
		<g>
			<path class="st0" d="M5.8,3.2h27.3l-2.2,8h-9.2L8.8,59.4H0l12.9-48.2H3.7L5.8,3.2z"/>
			<path class="st0" d="M42.5,26.9h12.1l-2.2,8H40.4l-4.4,16.5h15.3l-2.2,8H25L40,3.2h24.1l-2.2,8H46.7L42.5,26.9z"/>
			<path class="st0" d="M76,59.4c-0.1-1.4-0.2-2.3,1-6.9l2.4-8.8c1.4-5.2,0.1-7.1-3.9-7.1h-3.1l-6.1,22.9h-8.8L72.6,3.2h13.3
				c9.2,0,11.9,4.3,9.6,12.9l-1.2,4.4c-1.5,5.8-4.4,9.6-8.8,11.4c3.9,1.8,4.2,6.1,2.7,12l-2.3,8.7c-0.7,2.7-1.2,4.7-0.9,6.8H76z
				 M79.3,11.2l-4.6,17.3h3.5c3.3,0,5.7-1.4,6.9-5.9l1.5-5.5c1.1-4,0.2-5.8-2.9-5.8H79.3z"/>
			<path class="st0" d="M111.3,59.4c-0.1-1.4-0.2-2.3,1-6.9l2.4-8.8c1.4-5.2,0.1-7.1-3.9-7.1h-3.1l-6.1,22.9h-8.8l15.1-56.2h13.3
				c9.2,0,11.9,4.3,9.6,12.9l-1.2,4.4c-1.5,5.8-4.4,9.6-8.8,11.4c3.9,1.8,4.2,6.1,2.7,12l-2.3,8.7c-0.7,2.7-1.2,4.7-0.9,6.8H111.3z
				 M114.6,11.2L110,28.5h3.5c3.3,0,5.7-1.4,6.9-5.9l1.5-5.5c1.1-4,0.2-5.8-2.9-5.8H114.6z"/>
			<path class="st0" d="M143.2,3.2h8.8L137,59.4h-8.8L143.2,3.2z"/>
			<path class="st0" d="M159,3.2h27.3l-2.2,8h-9.2L162,59.4h-8.8L166,11.2h-9.2L159,3.2z"/>
			<path class="st0" d="M188.8,16.7c2.4-9,8.5-14.1,17.2-14.1s12,5.1,9.6,14.1l-7.8,29.2c-2.4,9-8.5,14.1-17.2,14.1
				s-12-5.1-9.6-14.1L188.8,16.7z M189.7,46.4c-1.1,4,0.3,5.5,3.1,5.5c2.8,0,5-1.5,6.1-5.5l8.1-30.3c1.1-4-0.3-5.5-3.1-5.5
				c-2.8,0-5,1.5-6.1,5.5L189.7,46.4z"/>
			<path class="st0" d="M231.4,59.4c-0.1-1.4-0.2-2.3,1-6.9l2.4-8.8c1.4-5.2,0.1-7.1-3.9-7.1h-3.1l-6.1,22.9h-8.8L228,3.2h13.3
				c9.2,0,11.9,4.3,9.6,12.9l-1.2,4.4c-1.5,5.8-4.4,9.6-8.8,11.4c3.9,1.8,4.2,6.1,2.7,12l-2.3,8.7c-0.7,2.7-1.2,4.7-0.9,6.8H231.4z
				 M234.7,11.2L230,28.5h3.5c3.3,0,5.7-1.4,6.9-5.9l1.5-5.5c1.1-4,0.2-5.8-2.9-5.8H234.7z"/>
			<path class="st0" d="M263.3,3.2h8.8l-15.1,56.2h-8.8L263.3,3.2z"/>
			<path class="st0" d="M277.3,16.7c2.4-9,8.5-14.1,17.2-14.1c8.7,0,12,5.1,9.6,14.1l-7.8,29.2c-2.4,9-8.5,14.1-17.2,14.1
				c-8.7,0-12-5.1-9.6-14.1L277.3,16.7z M278.1,46.4c-1.1,4,0.3,5.5,3.1,5.5c2.8,0,5-1.5,6.1-5.5l8.1-30.3c1.1-4-0.3-5.5-3.1-5.5
				c-2.8,0-5,1.5-6.1,5.5L278.1,46.4z"/>
			<path class="st1" d="M329,29.4l-11.2,29.9h-12.1l8.8-56.2h8.6l-7.1,44.3L332,3.2h8.5L333,47.8l16.5-44.6h7.7l-21.3,56.2h-11.7
				L329,29.4z"/>
			<path class="st1" d="M367.2,26.9h12.1l-2.2,8H365l-4.4,16.5h15.3l-2.2,8h-24.1l15.1-56.2h24.1l-2.2,8h-15.3L367.2,26.9z"/>
			<path class="st1" d="M420.2,16.1l-0.5,2c-1.5,5.8-4.3,9.5-8.7,11.3c4.2,1.8,4.9,6.1,3.4,12l-1.2,4.6c-2.3,8.7-8.1,13.3-17,13.3
				h-13.9l15.1-56.2h13.3C419.7,3.2,422.5,7.4,420.2,16.1z M397.8,34.1l-4.6,17.3h5.1c3,0,4.9-1.4,6.1-5.5l1.3-4.9
				c1.4-5.2,0.1-6.8-3.9-6.8H397.8z M403.9,11.2L400,26h3.5c3.3,0,5.7-1.4,6.9-5.9l0.8-3.1c1.1-4,0.2-5.8-2.9-5.8H403.9z"/>
		</g>
	</g>
</g>
</svg>
