<?xml version="1.0" encoding="utf-8"?>
<!-- Generator: Adobe Illustrator 24.0.1, SVG Export Plug-In . SVG Version: 6.00 Build 0)  -->
<svg version="1.1" id="Capa_1" xmlns="http://www.w3.org/2000/svg" xmlns:xlink="http://www.w3.org/1999/xlink" x="0px" y="0px"
	 viewBox="0 0 232.4 405.4" style="enable-background:new 0 0 232.4 405.4;" xml:space="preserve">
<style type="text/css">
	.st0{clip-path:url(#SVGID_2_);fill:none;stroke:#FFFFFF;stroke-width:8;stroke-miterlimit:10;}
	.st1{clip-path:url(#SVGID_2_);fill:#151F36;}
	.st2{clip-path:url(#SVGID_2_);fill:#3CA036;}
	.st3{clip-path:url(#SVGID_2_);fill:#F1862C;}
	.st4{fill:#151F36;}
	.st5{fill:#FFFFFF;}
	.st6{fill:#F1862C;}
</style>
<g>
	<g>
		<defs>
			<path id="SVGID_1_" d="M232.4,116.2C232.4,52,180.4,0,116.2,0S0,52,0,116.2c0,14.2,2.6,27.9,7.3,40.5h0l76.9,187.7
				c5.5,15.6,14.6,26.8,32.1,26.8s26.6-11.2,32.1-26.8l77-187.8h0C229.9,144,232.4,130.4,232.4,116.2z"/>
		</defs>
		<clipPath id="SVGID_2_">
			<use xlink:href="#SVGID_1_"  style="overflow:visible;"/>
		</clipPath>
		<line class="st0" x1="161.1" y1="115.3" x2="204.3" y2="232.9"/>
		<line class="st0" x1="116.4" y1="-5.1" x2="142.3" y2="64.9"/>
		<path class="st1" d="M157.6,112.2c-4.5,18.7-21.3,32.5-41.4,32.5c-23.5,0-42.6-19.1-42.6-42.6c0-23.5,19.1-42.6,42.6-42.6
			c9.4,0,18,3,25,8.1L119.5,8.5h-284.6v359.2h416.6L157.6,112.2z"/>
		<path class="st2" d="M119.1,4"/>
		<path class="st3" d="M212.9,8.5h-89.5l23.5,64.2c7.4,7.7,11.9,18,11.9,29.5c0,0.9,0,1.8-0.1,2.7l96.3,262.8h89.9L212.9,8.5z"/>
	</g>
	<path class="st4" d="M208.1,336.7c6,4.8,9.3,10.2,9.3,15.8c0,20.8-45.3,37.7-101.2,37.7S15,373.4,15,352.5c0-5.7,3.3-11,9.3-15.8
		c-12,7-19,15.5-19,24.6c0,24.3,49.7,44,110.9,44s110.9-19.7,110.9-44C227.1,352.2,220.1,343.7,208.1,336.7z"/>
	<g>
		<path class="st5" d="M116.2,10c58.6,0,106.2,47.7,106.2,106.2c0,12.7-2.2,25.1-6.6,36.8L139,340.6l-0.1,0.2l-0.1,0.2
			c-6.2,17.7-14.9,20.1-22.6,20.1c-7.7,0-16.4-2.4-22.6-20.1l-0.1-0.2l-0.1-0.2L16.6,153.2c-4.4-11.8-6.6-24.3-6.6-37
			C10,57.6,57.6,10,116.2,10 M116.2,154.8c29,0,52.6-23.6,52.6-52.6c0-29-23.6-52.6-52.6-52.6c-29,0-52.6,23.6-52.6,52.6
			C63.6,131.2,87.2,154.8,116.2,154.8 M116.2,0C52,0,0,52,0,116.2c0,14.2,2.6,27.9,7.3,40.5h0l76.9,187.7
			c5.5,15.6,14.6,26.8,32.1,26.8s26.6-11.2,32.1-26.8l77-187.8h0c4.7-12.6,7.2-26.2,7.2-40.4C232.4,52,180.4,0,116.2,0L116.2,0z
			 M116.2,144.8c-23.5,0-42.6-19.1-42.6-42.6c0-23.5,19.1-42.6,42.6-42.6s42.6,19.1,42.6,42.6C158.8,125.7,139.7,144.8,116.2,144.8
			L116.2,144.8z"/>
		<path class="st4" d="M116.2,6c29.4,0,57.1,11.5,77.9,32.3c20.8,20.8,32.3,48.5,32.3,77.9c0,13.2-2.3,26-6.8,38.3l-76.9,187.6
			l-0.1,0.1l-0.1,0.1c-5.5,15.7-13.7,22.8-26.4,22.8c-12.8,0-20.9-7-26.4-22.8l-0.1-0.1l-0.1-0.1L12.9,154.6l0,0
			C8.3,142.3,6,129.4,6,116.2c0-29.4,11.5-57.1,32.3-77.9C59.1,17.5,86.8,6,116.2,6 M116.2,150.8c26.8,0,48.6-21.8,48.6-48.6
			S143,53.6,116.2,53.6c-26.8,0-48.6,21.8-48.6,48.6S89.4,150.8,116.2,150.8 M116.2,0C52,0,0,52,0,116.2c0,14.2,2.6,27.9,7.3,40.5h0
			l76.9,187.7c5.5,15.6,14.6,26.8,32.1,26.8s26.6-11.2,32.1-26.8l77-187.8h0c4.7-12.6,7.2-26.2,7.2-40.4C232.4,52,180.4,0,116.2,0
			L116.2,0z M116.2,144.8c-23.5,0-42.6-19.1-42.6-42.6c0-23.5,19.1-42.6,42.6-42.6s42.6,19.1,42.6,42.6
			C158.8,125.7,139.7,144.8,116.2,144.8L116.2,144.8z"/>
		<path class="st6" d="M116.2,2c30.5,0,59.2,11.9,80.8,33.5c21.6,21.6,33.5,50.3,33.5,80.8c0,13.6-2.4,27-7.1,39.7l0,0.1
			l-76.9,187.7l0,0l0,0c-6.1,17.3-15.7,25.4-30.2,25.4c-14.5,0-24.1-8.1-30.2-25.4l0,0l0,0L9.2,156.1l0-0.1
			C4.4,143.3,2,129.9,2,116.2C2,85.7,13.9,57,35.5,35.5C57,13.9,85.7,2,116.2,2 M116.2,146.8c24.6,0,44.6-20,44.6-44.6
			s-20-44.6-44.6-44.6c-24.6,0-44.6,20-44.6,44.6S91.6,146.8,116.2,146.8 M116.2,0C52,0,0,52,0,116.2c0,14.2,2.6,27.9,7.3,40.5h0
			l76.9,187.7c5.5,15.6,14.6,26.8,32.1,26.8s26.6-11.2,32.1-26.8l77-187.8h0c4.7-12.6,7.2-26.2,7.2-40.4C232.4,52,180.4,0,116.2,0
			L116.2,0z M116.2,144.8c-23.5,0-42.6-19.1-42.6-42.6c0-23.5,19.1-42.6,42.6-42.6s42.6,19.1,42.6,42.6
			C158.8,125.7,139.7,144.8,116.2,144.8L116.2,144.8z"/>
	</g>
</g>
</svg>
